<?xml version="1.0" encoding="utf-8"?>
<!-- Generator: Adobe Illustrator 25.1.0, SVG Export Plug-In . SVG Version: 6.00 Build 0)  -->
<svg version="1.1" id="Layer_1" xmlns="http://www.w3.org/2000/svg" xmlns:xlink="http://www.w3.org/1999/xlink" x="0px" y="0px"
	 viewBox="0 0 576 328" style="enable-background:new 0 0 576 328;" xml:space="preserve">
<style type="text/css">
	.st0{fill:#FFFFFF;}
	.st1{fill:none;stroke:#DDDDDD;stroke-miterlimit:10;}
	.st2{fill:#A59C99;}
	.st3{fill:#CBC2BE;}
	.st4{fill:#B4ABA8;}
	.st5{fill:#D0C7C3;}
	.st6{fill:#7F7774;}
	.st7{fill:#CCC3BF;}
	.st8{fill:#D2CAC6;}
	.st9{fill:#BFB7B3;}
	.st10{fill:#CFC6C2;}
	.st11{fill:#D2C9C5;}
	.st12{fill:#C5BCB8;}
	.st13{fill:#C7BFBB;}
	.st14{fill:#786F6D;}
	.st15{fill:#CDC4C0;}
	.st16{fill:#AAA19E;}
	.st17{fill:#D7CECA;}
	.st18{fill:#DBD3CF;}
	.st19{fill:#D8CFCB;}
	.st20{fill:#D9D1CD;}
	.st21{fill:#C7BEBA;}
	.st22{fill:#B8B0AC;}
	.st23{fill:#D4CBC7;}
	.st24{fill:#BBB3AF;}
	.st25{fill:#3C3533;}
	.st26{fill:#DCD4D0;}
	.st27{fill:#CEC5C1;}
	.st28{fill:#BCB4B0;}
	.st29{fill:#C3BBB7;}
	.st30{fill:#9A928E;}
	.st31{fill:#D5CCC8;}
	.st32{fill:#DAD2CE;}
	.st33{fill:#D7CFCB;}
	.st34{fill:#C8C0BC;}
	.st35{fill:#D5CDC9;}
	.st36{fill:#B9B1AD;}
	.st37{fill:#B2A9A6;}
	.st38{fill:#716765;}
	.st39{fill:#D1C9C5;}
	.st40{fill:#090604;}
	.st41{fill:#AEA5A2;}
	.st42{fill:#C0B8B4;}
	.st43{fill:#AFA6A3;}
	.st44{fill:#9D9491;}
	.st45{fill:#C4BBB7;}
	.st46{fill:#D4CCC8;}
	.st47{fill:#D6CECA;}
	.st48{fill:#A19895;}
	.st49{fill:#C4BCB8;}
	.st50{fill:#7C7471;}
	.st51{fill:none;}
	.st52{fill:url(#SVGID_1_);}
	.st53{font-family:'Helvetica';}
	.st54{font-size:10px;}
	.st55{display:none;}
	.st56{font-family:'Luminari-Regular';}
	.st57{font-size:12px;}
	.st58{font-size:16px;}
</style>
<rect class="st0" width="576" height="328"/>
<g transform="translate(5,23)">
	<g>
		<g transform="translate(0,0)">
			<path class="st1" d="M0.5,0.5h400v300H0.5V0.5z"/>
			<g>
				<g>
					<path class="st2" d="M248.9,201.6l0-2.5l1.7-0.1l5.3-0.4l2.4-0.2l7.2-1.3l3.3-0.9l4.6-1.3l0,1.2l0.1,1.5l0,0l0.1,3.7l0.2,4.2
						l0,1.5l0,0l0.2,4.5l0,0.1l0.3,7.5l0.1,1.1l0,1.4l0.1,1.5l-9.8,0.1l-10.8,0l-5.3,0L248.9,201.6z"/>
					<path class="st3" d="M279.2,12.6L279.3,0l5.5,0l0.2,0l2.8,0l0.1,0.3l0.6,1l0.4,0.5l0.2,0.3l0.2,0.5l0.6,1.4l0.4,0.7l0.4,0.5
						l0.3,0.3l0.2,0.1l0.6,0.3l1.3,0.5l0.1,0.1l-0.5,5.1l-0.5,4.2l-0.1,1.4l-0.2,1.8l-0.6,4.6L291,26l0,0.1l0,0.4l-0.9,7.5l-9.1,0
						l-0.1-7.4l0-10.2l-0.9,0l0-0.9l-0.9,0L279.2,12.6z"/>
					<path class="st4" d="M233,39.3l5.6,0l11.1,0l0,0.9l5.4,0l0,3.6l0,0.9l0,5.6l0,3.7l0,1.9l0,2.7l-13.1,0l-3.4,0l-5.5,0l-0.1-5.5
						l0-5.5l0-5.4L233,39.3z"/>
					<path class="st5" d="M229,170.8l0-18.3l0.3,0l17.9-0.1l0.6,0l2.7,0l0,5.6l0.1,16.3l-10.7,0l-3.6,0l-7.2,0L229,170.8z"/>
					<path class="st6" d="M191.4,225.6l3.4,0l0.9,0.3l7.1,0l0-2.7l8,0l0.9,0l0,9.2l0,3.3l0,1.1l0,5.2l0,7.7l-3.9,0l0,0l-0.1-0.1
						l-0.2-0.1l-0.5,0.1l-0.2,0.1l-0.1,0.1l-0.1,0l-0.1,0l0,0l0-0.1l-3.3,0l-0.4,0l-0.6,0l0,0l0-4.5l-4.5,0l0-0.9l-0.4,0l0-1.3
						l-0.5,0l0-1.3l-3.6,0l0-2.7l-1.3,0l0-3.1l-0.4-0.4l0-2.3l0-3.9L191.4,225.6z"/>
					<path class="st7" d="M229,174.5l7.2,0l3.6,0l10.7,0l0,7.2l0,3.7l0.1,5.3l0,1.8l0.1,6.6l-1.7,0.1l-7.1,0.5l-0.2,0l-6,0.4
						l-3.5,0.2l-2.7,0.2l0-4.5l-0.2-0.9L229,174.5z"/>
					<path class="st8" d="M197.1,52.9l11,0.1l0-1.8l10.2,0.1l0.9,0l0,1.8l0.1,9l0,9.7l-11,0l-2.7,0l0-1.9l-8.2-0.1l0-10.1l0-5.2
						L197.1,52.9z"/>
					<path class="st9" d="M255.2,2.9l0-2.9l1.9,0l14.3,0l2.3,0l0,0l4.7,0l0.9,0l-0.1,12.5l0,2.8l-17.6-0.1l-0.9,0l-1.8,0l0-6.5
						l-3.7,0L255.2,2.9z"/>
					<path class="st10" d="M227.4,3.2l0-3l7.1,0l1,0l2.2,0l0.9,0l0,0l5.9,0l0.5,0l0,8.7l-0.9,0l0,2.8l-2.8,0l0,13.8l-2.8,0l-5.5,0
						l0,0.9l-2.8,0l0-8.8l0-6.3l0-1.5l-2.8,0l0-4.7L227.4,3.2z"/>
					<path class="st11" d="M186.4,80.9l0-5.5l7.4,0l0.9,0l0-0.9l2.7,0l0-4.7l8.2,0.1l0,1.9l2.7,0l11,0l0,9.2l0,2.8l-11.9,0l-2.8,0
						l-4.8,0l-13.1,0l-0.5,0L186.4,80.9z"/>
					<path class="st12" d="M207.7,149l0-15.6l0-2.8l5.6,0l1.2,0l2.2,0l12.6-0.1l0.1,17.6l0,4.5l-0.3,0l-2.4,0l-5.4,0l-13.5-0.1
						L207.7,149z"/>
					<path class="st7" d="M241.3,92.8L241.3,92.8l0-1.9l2.8,0l0.9,0l3.6-0.1l9.4-0.1l1.8,0l1.5,0.4l0.8-0.4l1.1,0l0,3.7l0,2.7l0,3.7
						l0.1,7.3l-7.5,0l-4.6,0l-0.1,0l-3.4,0l-4.1,0l-2.3,0l0-10L241.3,92.8z"/>
					<path class="st13" d="M229.2,130.4l7.9,0l7.9,0l2.7,0.3l1.8,0.5l0-0.5l0.5,0l0.3,0l0,3.7l0,0.5l0,3.4l0,14.3l-2.7,0l-0.6,0
						l-17.9,0.1l0-4.5L229.2,130.4z"/>
					<path class="st8" d="M219.2,53.1l13.8,0.1l0.1,5.5l5.5,0l0.1,16.5l-2.7,0l-0.1,4.6l0,1l-10.6,0l-5.9,0l0-9.2l0-9.7L219.2,53.1z
						"/>
					<path class="st14" d="M254.2,223.2l10.8,0l9.8-0.1l0,0.9l0,0l0.2,4l0,0l0.3,5.4l0,0.9l0,0.4l0,1l0,0.1l0.3,7.1l0.3,6.9l0,0.1
						l0,0.1l-7.2,0l-14.2,0l-0.3,0l0-16.5L254.2,223.2z"/>
					<path class="st15" d="M269.8,45.8l0.1-3.9l0-6l0-2.1l1.8,0l4.3,0l3.5,0.1l1.4,0l9.1,0l-0.5,5.1l0,0.1l-0.4,3.8l-0.1,1.2
						l-0.1,0.5l0,0.1l-0.5,4.5l0,1l-0.2,0.9l-0.1,0.9l-0.4,3.8l-0.2,1.9l-16.1-0.2l-1.7,0l0-1.9l0-2.8l0-4.5L269.8,45.8z"/>
					<path class="st16" d="M164.8,228.3l4.1,0l11,0l0,4.8v0.5l0,5.3l0,1.8l0,9l-4.5,0l-0.1,0h0l-1.2,0l-0.6,0l-2.2,0l-0.2,0l-0.6,0
						l-0.2,0l0,0l-0.7,0l-0.9,0l-0.1,0l-0.1,0l-0.5,0l0,0l-3.2,0l0-3.6l0-6.2l0-2.7l0-1.2L164.8,228.3z"/>
					<path d="M222.3,223.1l2.5,0l0.2,0l4.2,0l1.1,0l8,0l0,5.5l0,21.1l0.4,0l0,5.5l-1.7,0l-1.4,0l-7.4,0l0-5.6l-0.4-0.6l0-4.4l0-5.1
						l0.1-5.7l0-4l0-1.3l-0.3,0l-2.4,0l-2.7,0l0-0.9L222.3,223.1z"/>
					<path class="st17" d="M255.7,120.6l0-5.3l0-7.1l7.5,0l19.1-0.1l-0.4,4.2l-0.1,1.1l-0.1,1.2l-0.7,6.9l0,0l-0.5,5.1l-0.4,3.9
						l-24.4,0.2l0-0.1l0-6.7L255.7,120.6z"/>
					<path class="st18" d="M153.5,98.2l0.2-5.1l-0.1-0.2l0-1.8l0-2.6l0-1l5.5,0l0-4.6l0-0.9l0-5l0-4.3l0.1-8.5l10.8,0.1l0,4.9
						l-0.1,6.1l0,6.5l-0.1,23.8l-5.4,0l0,3.7l-8.4,0l-2.5,0l0-6.4L153.5,98.2z"/>
					<path class="st19" d="M169.9,69.1l0-4.9l0-5.5l5.7,0l2.8,0l8.1,0l0-5.5l0.9,0l8.4,0l1.4-0.3l0.3,1.5l0,5.2l0,10.1l0,4.7l-2.7,0
						l0,0.9l-0.9,0l-7.4,0l0,5.5l-4.4,0l-1-1l-0.7,0.4l-0.2,1l-0.7,1.1l-1.6-0.1l-0.7-1.7l1-1.6l3.2-0.9l0.3,0.4l1.2,0l1-0.4
						l0.7-1.5l-0.6-1.2l-2.2,0l-11.9-0.1L169.9,69.1z"/>
					<path class="st20" d="M169.9,53.6l0-4.4l0-2.5l2.7,0.1l0-4.7l0.1-5.6l-0.1-0.1l5.1,0l-0.1-5.4l5.5-0.1l0.3,10.8l0,2.5l3.1,2.2
						l0,2.5l0,4.2l0,5.5l-8.1,0l-2.8,0l-5.7,0L169.9,53.6z"/>
					<path class="st21" d="M205.5,150.7l2.1-1.7l0,3.5l13.5,0.1l5.4,0l2.4,0l0,18.3l0,3.6l-19.9,0l-1.5,0.1l0-3.7l0-4.4l-1.8-9.4
						l-1-5.2L205.5,150.7z"/>
					<path class="st22" d="M169.9,152.7l1.2-0.7l1.2,0.7l2.2-1.8l0.9-0.6l0.5,0.5l0.8-0.6l0.9-1.8l0.8,0.2l0.6-1.2l1.7,0.1l1-0.6
						l0.1,0.4l1.4-0.2l1.3-1l3-1.5l0.8,0.3l0.3-0.5l0.9-1.4l1.8-0.9l0.5-1l0.8-2.7l0-1.5l1-0.3l1.7-3l6.6-0.4l5.8,0l0,15.6l-2.1,1.7
						l-0.7,1.2l-2.2,0.1l-0.7-0.5l-1.2,1.1l0,0.4l-0.2,0.3l-0.4,0.3l-0.6-0.2l-0.5,1.4l-1.4,0.8l-0.4,1l-0.4-0.1l-1.1,1.4l-2.8,0.7
						l-0.3,0.4l-1.2,2l-1.4,0.2l0.3,1.2l-0.7,0.1l0.5,1.2l-1.1,0l-2,0l-0.6,0l-0.3,0l-1,0l-0.9,0l-3.5,0l0-5.4l-0.2,0l-1.7,0l-3.9,0
						l-2.1,0l-2.9,0L169.9,152.7z"/>
					<path class="st5" d="M170.9,120.2l0.7-1.2l0.1,0.7l1.2,0.1l0.4,0.9l0.6,0.2l0.4-0.7l-1.1-1.1l0.9-0.8l0.5,2l0.6-0.4l-0.4-0.7
						l0.4-1.2l0.9-0.2l0-3.2l-0.1-7.3l1.2-1.1l0.2,0.6l1-0.2l0.4-1.7l-0.8-1.4l-1.4-0.2l0-0.6l7.7,2.6l13,4.4l0.6,0.2l1.3,0.4
						l7.3,2.4l0,0.2l-0.6,1l-0.9,0.1l0.1,1.1l-0.5,0.9l-0.6,0.2l0,1.8l-0.7,1.1l-1,0.2l0.3,0.6l-0.4,0.7l0.2,1.6l-0.5,0.1l-0.2,1.4
						l-1.9,2.4l-0.6,1.7l-0.6,2.5l-3.6,3.3l-10.7-4.5l-0.2-0.1l-8.6-3.6l-0.4-0.8l-0.5,0.7l-0.5,0.1l-1-1l0.2-1L173,123l-1.3,0.1
						l-0.8-0.8L170.9,120.2z"/>
					<path class="st23" d="M236,75.2l2.7,0l-0.1-16.5l3.4,0l13.1,0l5.5,0l0,1.3l0,15.3l-11.1-0.1l0,3.7l-5.4,0l0,0.9l-8.2,0.1
						L236,75.2z"/>
					<path class="st24" d="M233,31.9l0-5.6l0-0.9l5.5,0l2.8,0l17.3,0.1l1.2,0l0,2.5l0,3l0,0.9l-2.8,0l0,6.4l-1.9,0l0,1.8l-5.4,0
						l0-0.9l-11.1,0l-5.6,0L233,31.9z"/>
					<path class="st18" d="M162.7,20.8l0.3-0.6l0.2-0.2l0.3-0.2l1.1-0.1l0.7,1.1l-0.6,0.5l-0.1,0.2l-0.1,0.3l-0.1,0.6l0.1,0.3
						l0.1,0.3l0.2,0.3l0.2,0.1l0.3,0.1l0.3,0l0.4-0.1l0.4-0.2l0.5-0.4l0.3-0.3l0.3-0.5l0.5-0.4l0.4-0.3l0.5-0.6l0.2-0.3l0.2-0.6
						l0-0.2l-0.1-0.2l-0.2-0.3l-0.2-0.2l-0.2-0.1l-0.3,0l-0.4,0l-0.5,0.1l-0.7,0.2l-0.6,0.1l-0.4,0l-0.5-0.1l-0.4-0.2l-1-1.2
						l-0.1-0.1l0-0.1l0-0.2l0-0.4l0.1-0.2l0.1-0.1l0.2-0.1l0.2,0l0.2,0l0.2-0.1l0.1-0.1l0.1-0.1l0.1-0.2l0.1-0.2l0-0.8l-0.2-0.6
						l-0.1-0.4l0-0.2l0-0.2l0.2-0.4l0.2-0.3l0.2-0.2l0.3-0.1l0.4-0.1l0.4,0l0.1,0.3l0.5,1l0.1,0.3l0,0.2l0,0.1l-0.2,0.3l-0.6,0.4
						l-0.2,0.3l-0.1,0.3v0.3l0,0.3l0.1,0.4l0.2,0.2l0.7,0.3l0.7,0l0.5-0.1l0.5-0.1l0.6-0.4l0.2-0.2l0.1-0.3l0.1-0.3l0-0.2l-0.1-0.4
						l-0.3-0.7l-0.6-1.1l-0.2-0.5l-0.1-0.3l0-0.3l0.1-0.3l0.1-0.2l0.3-0.4l0.3-0.2l0.1-0.4l0-0.2l-0.4-0.7l-0.6-0.9l-0.4-0.5
						l-0.1-0.2l-0.1-0.5l0-0.4l0-0.1l0.2-0.4l0.2-0.2l0.5-0.3l0.3-0.1l0.3,0.1l0.5,0.2l0.2,0.1l0.2,0.1l0.1,0.1L171,8l0.1,0.3l0,0.1
						l-0.1,0.4l0,0.2l0,0.4l0.1,0.5l0.3,0.4l0.1,0.1l0.4,0.1l0.2,0l0.1-0.1l0.3-0.1l1.1-0.7l1.4-0.5l0.2-0.1l0.4-0.3l0.4,0.5
						l0.5,0.4l0.2,0.1l0.4,0l0.2-0.1l0.2-0.3l0.1-0.2l0-0.1l-0.1-0.2l0-0.1l5.4,0l0,5.6l0.1,3.1l-1.2,0.6l-0.5,1.1l0.6,0.5l-0.2,1.1
						l0.5,1.7l-1.2,1.3l-0.2,1.7l0.5-0.1l0.8,2.6l1,0.3l0,2.8l-5.5,0.1l0.1,5.4l-5.1,0l-8.9-6.4l0.7-0.4l0.5-0.4l0.1-0.2l0.1-0.3
						l0-0.2l0-0.2l-0.3-0.8l-0.2-0.3l-0.4-0.6l-0.4-0.4l-0.3-0.3l-0.2-0.5l-0.4-0.6l-0.3-0.7l-0.1-0.7l0.3-0.9l0-0.1l0-0.1l-0.1-0.2
						l-0.1-0.3l-0.1-0.9l-0.1-0.2L162.7,20.8z"/>
					<path class="st25" d="M224.9,200.8l4.4-0.3l2.7-0.2l3.5-0.2l6-0.4l0.2,0l7.1-0.5l0,2.5l0,21.6l-3.7,0l-7,0l-8,0l-1.1,0l-4.2,0
						L224.9,200.8z"/>
					<path class="st26" d="M143.1,136.2l0.4-0.9l0.8-0.6l0-1.5l0.6-1.4l0.8-2.3l0-4l0-5.6l2.7,0l0,0.2l8.4-0.1l2.3,0l0.1,10.9
						l-5.4,5.4l0,1.4l1,0.3l0.9-0.6l1.5,0.2l-0.8,0.5l-0.3,1.1l0.4,0.8l0.9,0.7l-0.2,0.7l-1.3,0.4l-1-0.5l-0.3,1.7l1.5,1.4l1.1,0
						l1.5,1.1l-0.3,1.2l-0.7,0.4l-0.6-1.3l-0.7-0.3l-0.8,1.8l-12.7,0L143.1,136.2z"/>
					<path class="st4" d="M255.1,43.8l0-3.6l0-1.8l1.9,0l0-6.4l2.8,0l0-0.9l10.2,0l0,2.8l0,2.1l0,6l-0.1,3.9l0,2.7l0,4.5l0,2.8
						l0,1.9l-5.8,0l-1,0l-2.4,0l0,0.9l-5.5,0l0-2.7l0-1.9l0-3.7l0-5.6L255.1,43.8z"/>
					<path d="M271.6,297.4l1-0.1l1.4,0.7l0.6,0.1l0.2,0l0.3-0.1l0.8-0.4l1-0.2l0.2,0.8l-1.3,0.8l-1,0.2l-0.3,0l-2.1-0.5l-0.7-0.5
						L271.6,297.4z M257.9,295.7l1.8-0.5l1.1-0.2l1.4,0.4l1.1,0.4l0.6,0.2l2.5,0.5l1.1,0.8l-1.3,0.1l-1.7-0.2l-1.3-0.1l-0.2,0
						l-2.3-0.9l-1.4,0.3h-0.8l-0.6-0.2L257.9,295.7z M252,265.9l2.4,0l0.3,0.1l9.1,0l5.9,0l7.1,0l0,0.2l0,0.1l0,1.1l0,0.4l0.1,2.3
						l0.1,1.9l0,0.3l0,0.5l0.1,2l0.1,1.8l0,0.9l0,0.1l0,0.6l0.1,1.4l0.4,8.6l-0.1,0.1l-0.1,0.4l0.1,0.4l0.2,0.1l0,0.2l-0.4,0.3
						l-0.5,0.1l-0.5-0.7l-0.8,0l-0.7,0.4l0,0.6l-0.4,0.5l-0.9,0.6l-0.4,0.1l-1.3-0.2l-0.1-0.1l0-0.3l-0.8-0.8l-0.7-0.2l-1.7,0.8
						l-0.7-0.1l-0.9-1.5l-0.7,0.2l-1.3-0.4l0,0l-1.4-0.1l-1.9,1.1l-1.5,0.1l-0.9-0.3l-0.1-0.1l-1.2-1l-2.1-1.2l-0.1,0.6l-0.6-0.5
						l-0.4-0.6l-0.6-0.7l-0.8-0.6l-1.1-0.2l0-2.1l0-6.5l0-7.1L252,265.9z"/>
					<path class="st23" d="M108.4,249.4l1-0.4l0.8-0.4l0.6-0.4l0.4-0.4l0.4-0.6l0.2-0.4l0-0.2l0-0.3l-0.1-0.4l-0.2-0.4l-0.2-0.2
						l-1.4-1.3l-0.8-0.6l-0.3-0.2l-0.2-0.2l-0.2-0.2l-0.2-0.4l0-0.1l0-0.6l0-0.2l0-0.1l0.1-0.2l0.9-1.1l0.2-0.3l0.1-0.2l0.3-0.6
						l0.1-0.3l0-0.1l0-0.5l0-0.1l0.7-2l0.8-0.7l1-0.2l0.6,0.5l0,1l1.2-0.7l1.1-0.1l0.4-0.7l0.1-1.3l-1.1-1l0.1-0.5l1.2-0.1l0.1-2.1
						l2.3,0.3l0.6-0.5l1.1-0.1l0.4-0.7l0.9,0l0.6-0.5l0.7,0.2l0.6-0.7l1.3-0.6l1.2,0.2l0.5-0.6l0.8,0.5l1.4-0.8l0.9,1l1.4,0.5
						l1.5,0.2l2.1,1.6l1.2,0l0.8,2l1.1,0.4l0,2.2l0,15.1l-0.4,0l-0.7,0l-1.4,0l0,0l-3.6,0l0,0l-2.5,0h0l-1.1,0l-7.9,0l-1.4,0l-0.1,0
						l-3.8,0l-0.1,0l-2,0l-4.5,0l-0.6,0L108.4,249.4z"/>
					<path class="st27" d="M229.2,122.1l0-2.7l5.4,0l0-2.7l0-2.8l4.4,0l1,0l0-5.5l1.1,0l2.3,0l4.1,0l3.4,0l0.1,0l4.6,0l0,7.1l0,5.3
						l0,3.4l0,6.7l0,0.1l-5-0.1l-0.3,0l-0.3,0l-0.5,0l0,0.5l-1.8-0.5l-2.7-0.3l-7.9,0l-7.9,0L229.2,122.1z"/>
					<path class="st28" d="M241.3,11.5l2.8,0l0-2.8l0.9,0l0-8.7l4.8,0l2-0.1l1.9,0.1l1.5,0l0,2.9l0,5.9l3.7,0l0,6.5l1.8,0l0,10.2
						l-0.9,0l-1.2,0l-17.3-0.1L241.3,11.5z"/>
					<path d="M201.3,270.3l0.1-0.1l0.1,0l0,0l0.1-0.2l0.1-0.3l0.4-1l0.1,0l0-0.5l-0.1-0.3l-0.1,0l-0.1,0.1l-0.1,0l-0.1-0.1l0-0.1
						l0-0.1l0.5-0.5l0.2,0l0.1-0.1l0.1-0.5l-0.3-0.1l-0.2,0l0-0.1l0-0.4l0.1-0.1l0,0l0.1,0l0.4,0l0.2,0l0.2,0l0.1,0l0-0.1l0,0
						l-0.1,0l-0.2,0l-0.1-0.1l0-0.3l-0.1-0.7l-0.2-0.6l0.4-0.7l0.2-0.5l0-0.2l0-0.1l0.1-0.2l0.1-0.1h0.1l0.1,0.1l0,0.1l0,0.1l0,0.1
						l0.1,0l0.2-0.1l0.1-0.1l0-0.1l0-0.1l-0.1-0.1l0,0l-0.1-0.1l-0.1-0.2l0,0l0-0.1l0.1-0.1l0.1,0l0.2-0.1l0,0l0.2-0.4l0-0.3l0-0.2
						l0.1-0.1l0.1,0l0,0l0.3,0.1l0.3,0.3l0.2-0.1l0.1-0.1l-0.1-0.4l-0.1-0.2l-0.1,0l-0.1,0l0-0.1l0-0.4l0.1-0.4l0.3-0.1l0.1,0l0,0
						l0-0.1l-0.1-0.2l0-0.1l0-0.1l0,0l0.1,0l0.2,0l0.2,0.2l0.1,0l0-0.1l0.2-0.6l0-0.1l0,0l-0.5-0.4l-0.1-0.1l0-0.2l0.1-0.1l0.1,0
						l0.3,0l-0.1-0.5l-0.1-0.4l0-0.1l0.1,0l0.1,0l0.3,0.2l0.2,0l0.1-0.1l0.1-0.1l0-0.1l-0.2-0.3l-0.1,0l-0.1-0.1l0-0.2l0-0.1
						l0.1-0.1l0.2-0.1l0.1,0l0.2,0.1l0.2,0l0.2-0.2l0.1-0.2l0-0.1l0-0.1l-0.2-0.1l-0.1-0.4l0.1-0.2l0-0.1l-0.1-0.1l-0.3-0.2l0-0.1
						l0-0.1l0.3-0.5l0.4-0.4l0-0.1l0.4-0.4l0.1,0l0.1,0l0.1,0l0.1,0l0.1-0.1l0-0.1l-0.1-0.1l-0.4-0.2l-0.1-0.1l0-0.1l0.1,0l0.2,0
						l0.1-0.1l0-0.1l0.1-0.7l0-0.1l-0.2,0l-0.1-0.1l-0.1-0.3l0.3,0l0.1-0.1l0-0.1l3.9,0l2.3,0l3,0l0-0.9l1,0l1.6,0l0,0.9l1.3,0
						l0,1.1l2.7,0l0-1.7l4,0l0.4,0.6l0,5.6l0,3.2l0,9.9l0,2.9l-10.6,0l0,3.8l0,4.2l-2.7,0l-0.2,0.9l-2.5,0l0,2.7l-2.2,0l0,0
						l-0.3-0.2l-0.3-0.1l-0.2-0.4l-0.2-0.3l0,0l-0.1,0l-0.2,0l-0.2-0.3l-0.1-0.3l-0.2-0.2l-0.1,0l-0.4-0.1l-0.4-0.2l0-0.1l-0.2-0.2
						l-0.3,0l-0.3-0.2l0,0l0-0.4l-0.1-0.2l-0.4,0l-0.1-0.4l0-0.4l0-0.1l-0.2-0.5l-0.2-0.3l0,0l-0.2,0l-0.2,0l-0.1,0l-0.1-0.1l-0.1,0
						l0-0.1l0,0l0.1,0l0.1,0l0-0.2l-0.2-0.3l-0.4-0.1l-0.1-0.1l0-0.1l0.1-0.1l0.1-0.1l0.1,0l0.2,0.1l0.2-0.1l0.1-0.1l0-0.1l0-0.1
						l-0.2-0.1l-0.3,0l-0.2,0.1l-0.1,0l-0.1,0l0,0l0.1-0.2l-0.2-0.8l0.1,0l0,0l0-0.1l-0.3-0.3l-0.2,0l-0.1-0.1l-0.1-0.2l0-0.1
						l0.1-0.2l0.1-0.3l0-0.1l-0.1-0.1l-0.1,0l-0.2,0.1l-0.1-0.1l0-0.4l0.1-0.2l0-0.1l-0.1-0.2l0.3-0.7l-0.2-0.6l-0.2-0.3l-0.4-0.5
						l-0.1,0l-0.3-0.1l-0.6-0.2L201.3,270.3z"/>
					<path class="st29" d="M155,201.5l0.2-2.7l0.8-0.9l0-3.7l0.1-4.5l-0.2-4.4l3,0l0.3-0.1l14.3,0l2.3,0l0.2,0l1.7,0l3.7,0l-0.9,1.1
						l0.5,0.7l1,0l-0.6,0.7l0.4,0.7l1.9,2.9l-0.3-0.2l0.1,0.6l-0.3,0.1l1,0l0.5,1.5l0,0.8l1.3,0.7l0.4,1.1l0.3,1.1l-0.3,0.5l-1,0.3
						l1.2,1.5l-0.8,1.2l0.5,0.6l1.6,0l0.2,0.7l-1.1,0.7l0.3,0.8l-0.5-0.2l-0.9,0.6l-0.3,0l-1.6,1l-3.2,0.9l-0.7,0.8l-2.8,0.2l-3.6,0
						l-0.1,0.9l-1.4,0l-0.2-0.3l0-0.7l-9.4,0.1l-7.5,0L155,201.5z"/>
					<path class="st30" d="M180.8,177.3l0.5,0.3l2-0.9l0.7-0.9l-0.2-1.1l-1.2-1l0.2-1l1-0.5l0.1-0.8l0.3-0.1l0.1-0.9l0.5,0.2
						l0.9-0.2l-0.3-0.4l-0.3-0.6l0.5-0.9l0.6,0l1.7-1.7l0.8-2.6l0.6-0.3l0.8-0.3l-0.5-1.2l0.7-0.1l-0.3-1.2l1.4-0.2l1.2-2l0.3-0.4
						l2.8-0.7l1.1-1.4l0.4,0.1l0.4-1l1.4-0.8l0.5-1.4l0.6,0.2l0.4-0.3l0.2-0.3l0-0.4l1.2-1.1l0.7,0.5l2.2-0.1l1,5.2l1.8,9.4l0,4.4
						l0,3.7l0,0l0.1,8.1l0,2.7l-13.4-0.1l-10.9,0l-2,0l-0.3-0.9l0.5-0.9l-1.1-1.2l0.3-1.4l-0.4-2L180.8,177.3z"/>
					<path class="st7" d="M207.7,174.5l1.5-0.1l19.9,0l0.1,20.7l0.2,0.9l0,4.5l-4.4,0.3l-13.2,1l-0.1-0.2l0-11.8l0-2.4l-0.4-2.1
						l-3.6,0l0-2.7L207.7,174.5L207.7,174.5z"/>
					<path class="st31" d="M184.4,100l1.9,0l0-2.7l1.9,0l0-9.1l-1.5,0l1.2-0.2l0.3-3.4l-1.3-1l13.1,0l4.8,0l0.1,16.4l3.6,0l0,0.9
						l0.9,0l2.8,0l0,2.3l0,5.1l-2.9,0l-1,1.6l-1.5,2.9l-7.3-2.4l-1.3-0.4l-0.6-0.2l-13-4.4l0-2.6L184.4,100z"/>
					<path class="st32" d="M129,91.2L129,91l0,0l0.1-0.2l0.2-0.2l0.1-0.1l1-0.2l0.3-0.1l0.5-0.3l0.4-0.3l0.1-0.1l0.1,0l0.8,0.1
						l0.2,0l0.3-0.1l0.7-0.5l0.2-0.2l0.1-0.2l0-0.2l0.1-0.4l0-0.3l-0.1-0.3l-0.1-0.2l-0.3-0.4l-0.6-0.5l-0.7-0.6l-0.4-0.3l-0.4-0.2
						l-0.4-0.2l-1.4-0.3l-0.4-0.2l-0.2-0.2l-0.2-0.2l-0.1-0.2l0-0.4l0.1-0.3l0.1-0.3l0.2-0.3l0.4-0.3l0.4-0.2l0.2,0l0.6,0l0.8-0.1
						l0.5-0.1l0.2-0.1l0.1,0l0.9,1.1l0.6,0.8l0.2,0.1l1.5,0.9l0.4,0.1l0.3,0.1l0.2,0l0.3-0.1l0.6-0.3l0.4-0.2l0.5-0.1l0.2,0l0.5-0.2
						l0.1-0.1l0.2-0.3l0.1-0.2l0-0.4l-0.2-0.1l-0.1,0l-0.1-0.2l-0.1-0.2l-0.1-0.2l-0.3-0.4l-0.5-0.4l-0.2-0.1l-0.2-0.1l-0.2,0
						l-0.4,0.1l-0.8,0.4l-0.6,0.1l-0.3,0l-0.5,0l-0.4-0.2l-0.4-0.3l-0.6-0.8l-0.1-0.1l0-0.2l0-0.3l0.2-0.7l-0.1-0.1l0-0.1l0.2-0.3
						l0-0.2l0-0.1l-0.1-0.1l-0.1-0.1l0-0.2l0.2-0.4l0.1-0.2l0.1-0.2l0.2-0.2l0.1,0l0.2,0l0.2,0.1l0.3,0.2l0.3,0.3l0.2,0.2l1-0.3
						l0.2,0l1.3-0.1l0.3-0.1l1.4,0.9l0.2,0l0.6-0.1l0.7-0.3l0.3-0.3l0.1-0.2l0.1-0.2l0.1-0.2l0-0.2l-0.1-0.3l-0.4-0.4l-0.4-0.2
						l-0.6-0.1l-0.3-0.1l-0.9-0.4l-0.2-0.2l-0.1-0.2l-0.2-0.3l-0.2-0.3l-0.4-0.5l-0.1-0.2l-0.2-0.6l-0.1-0.5l0-0.3l0.1-0.3l0.5-0.7
						l0.3-0.3l1-1l0.5-0.6l0.5-0.7l0.3-0.4l0-0.1l0-0.1l-0.1-0.2l-0.4-0.3l-0.8-0.4l-0.6-0.2l-1.7-0.4l0,0l-0.3-0.1l-0.1-0.1
						l-0.1-0.2l-0.1-0.3l0-0.2l0-0.2l0.1-0.2l0.2-0.3l0.2-0.1l0.2-0.1l0.2-0.1l0.5,0l0.7,0l0.3-0.1l0.2-0.2l0.3-0.4l0.8-0.5l0.3,0.5
						l0.5,1.1l0.1,0.4l0.2,0.3l0.3,0.2l0.4,0.1l0.2,0l0.3,0l0.3-0.1l0.2-0.1l0.1-0.1l0.1-0.1l0.1-0.5l0-0.2l-0.5-0.8l-0.3-0.3
						l-0.1-0.2l-0.4-1.2L142,62l0.3-0.1l0.3,0l0.6,0.1l0.4,0.2l0.4,0l0.4-0.1l0.6-0.2l0.1,0l0.4,0.1l0.8-0.1l0.4-0.2l0.2-0.2
						l0.1-0.2l0-0.2l0-0.3l-0.1-0.4l0-0.4l0-0.2l0.1-0.2l0.2-0.3l0.4-0.5l0.1-0.3l0.1-0.3l0-0.1l-0.1-0.2l-0.2-0.4l-0.1-0.1
						l-0.2-0.1l-0.3-0.1l-0.3,0l-0.4,0.2l-0.7,0.1l-0.2,0l-0.2-0.1l-1.3-1l-0.1-0.1l-0.3-0.5l-0.1-0.1l8.2,0l7.3,0.1l0,8.3l0.2,0
						l-0.1,8.5l0,4.3l0,5l0,0.9l0,4.6l-5.5,0l0,1l0,2.6l0,1.8l-3.1,0l-2.2,0l-5.5-0.1L129.8,93l-0.2-0.2l-0.4-0.6l-0.2-0.4l-0.1-0.4
						L129,91.2z"/>
					<path class="st33" d="M128.8,195.9l0.4-0.5l1-0.9l0.2-0.2l0.1-0.2l0.1-0.1l0.2,0l0.2-0.1l0.1,0l0.1-0.2l0.1-0.1l0.3-0.1
						l0.1-0.1l0-0.1l-0.2-0.2l0.1-0.6l-0.1-0.1l-0.3,0.1l-0.1,0l0,0l0.2-0.7l0-0.4l0-0.3l0-0.2l0.2-0.3l0.4-0.5l0.4-0.4l0.3-0.2
						l2.5-0.3l0.7-0.2l0.4-0.3l0.3-0.3l0.7-1l-0.2-0.1l0-0.3l-0.1-0.3l-0.1-0.2l-0.2-0.2l-0.4-0.2l-1.6-0.3l-1-0.2l-0.3-0.2
						l-0.3-0.2l-0.1-0.2l-0.1-0.2l0-0.2v-0.2l0-0.1l0.1-0.2l0.2-0.3l0.4-0.3l0.2-0.1l0.3,0l0.2,0.1l0.3,0.2l0.2,0.3l0.5,0.8l0.6,0.5
						l0.3,0.1l0.9,0l0.1,0l0.1-0.1l-0.1-1.6l0-0.1l0.1-0.1l0.7-0.4l1.5-0.8l0.2-0.2l0.2-0.4l0-0.4l2.1,1.1l1,0.1l0.4-0.7l0.3,0.9
						l0.8,0.7l1.3-0.1l0.2-1l-0.5-0.1l0.1-1.3l0.7-0.9l1.3,1.1l1.9-0.8l0.1-0.6l-0.7-0.3l0.7-1l0.9,0.2l-0.2,0.7l0.5,0.5l0.8-0.9
						l0.6,0.5l0.9-0.6l-0.3-1.1l-0.5-0.2l0.7-1.2l1.4-0.2l-0.2-0.6l0.8,0l0.5-1.2l0.5,10.9l0.2,4.4l-0.1,4.5l0,3.7l-0.8,0.9
						l-0.2,2.7l-6.1,0l0.6-1.2l-0.1-1.4l-4.1-1l-4.8-1.2l-12.3-0.5L128.8,195.9z"/>
					<path d="M246.5,297.4l1.6-0.2l1.1-0.1l0.1-0.1l1.9-1.1l0.8-0.5l0.5,0.2l-0.2,0.6l-0.9,0.7l-2.1,0.8l-0.7,0.3l-1.2,0.3l-1.2-0.4
						L246.5,297.4z M237.5,296.1l3.2,0.1l0.7,0l0.7-1.2l0.7,0.6l-0.3,1.2l-0.6,1.1l-0.7,0.1l-0.5,0.1l-0.5,0.1l-1-0.8l-2.2-0.6
						L237.5,296.1z M228,277.1l0-5.9l3.6,0l1.1,0l0.3,0l0.4-1.8l5.5,0l7.8,0l5.3,0l0,7.1l0,6.5l0,2.1l1.1,0.2l0.8,0.6l0.6,0.7
						l0.4,0.6l0.6,0.5l-0.2,0.9l-3.2-1.6l-0.2-0.2l-0.1-0.2l-0.5-0.1l-1.5,0l-0.6,0l-1.4,0.1l-0.6,0l-0.1,0l-2.3,0.4l-1.9,0.5
						l-0.2,0.1l-1.4,0.4l-0.7,0.3l-0.1,0l-1.4,0.6l-3.2,1.3l-1.8,0.5l-1.4,0.5l-1.3,0.5l-0.7,0.1l-0.3,0l-0.2-0.3l0.1-1.2l0.2-0.3
						l0.3,0.1l0.1-1.1l-0.7-1l-1.2-0.6l-1.1,0.1l-0.3,0.1l0-5.3L228,277.1z"/>
					<path class="st34" d="M136.1,230.1l3.7-1l0.2-0.5l1.7,0.5l0.3-0.8l11.1-0.1l7.2,0l4.5,0l0,7.7l0,1.2l0,2.7l0,6.2l0,3.6l-1,0
						l-0.9,0h0l-0.2,0l-0.1,0l-3.1,0l-0.1,0l-4.4,0l0,0l-1.3,0l-0.6,0l-0.3,0l-0.2,0l-0.2,0l-2.2,0l0,0l-3.6,0l-7.7,0l-0.9,0l0-15.1
						l0-2.2L137,232L136.1,230.1z"/>
					<path class="st35" d="M132,178.1l0.1-0.8l0.2-0.6l0.2-0.6l0.1-0.1l0.2-0.2l1.3-0.7l0.2,0l0.1,0l0.2,0.1l0.4,0.3l0.2,0l0.1,0
						l0.2-0.1l0.4-0.6l0.4-0.4l0.4-0.2l0.5,0l0.2,0.1l0.5,0.5l0.3-0.4l0.1-0.2l0.1-0.4l0.1-0.2l0.2-0.2l0.4-0.1l0.2,0l0.4,0.2
						l0.3,0.2l0.6,0.6l0.2,0.1l0.2,0.1l-0.1,0.6l0.1,0.7l0.1,0.2l0.1,0l0.2,0l0.1,0l0,0l0.1-0.1l0.1-0.1l0.4-0.7l0-0.9l0-0.3
						l0.1-0.8l0.2-0.3l0.3-0.2l0-0.1l-0.1-0.3l-0.4-0.5l-0.1-0.1l-0.1-0.2L142,171l0.2-0.7l0.1-0.1l0.2-0.2l0.1,0l0.2,0l0.4,0l0.1,0
						l0.1,0.2l0.3,0.4l0.1,0.1l0.1,0.1l0.2,0l0.7-0.4l0.6-0.5l0.3-0.3l0.6-0.7l0.1-0.3l0.5-0.5l0.9-1.8l0-0.9l-0.1-0.1l-0.6,0.1
						l-0.2,0.2l-0.3,1L146,167l-0.2,0.3l-0.5-0.2l-0.7-0.2l-0.4-0.1l-0.6,0l-1.7-0.4l-0.4-0.1l-0.3-0.2l-0.2-0.3l-0.1-0.2v-0.2
						l0.2-0.8l0.2-0.4l0.1-0.3l0-0.3l0-0.4l0.7-0.3l0.3-0.2l0.2-0.2l0.2-0.2l0.1-0.2l0-0.2l0-0.6l0-0.1l-0.1-0.2l-0.1-0.1l-0.5-0.5
						l-0.3-0.1l-0.5-0.1l-0.3,0l-0.3,0.3l-0.6,0.3l-0.5,0.4l-0.2,0.1l-1.2-0.3l-0.9-0.4l-0.6-0.3l-0.7-0.5l-0.7-0.8l-0.2-0.3
						l-0.2-0.4l-0.1-0.7l0-0.3l0.5-0.9l0.3-0.7l0.2-1.2l1.6,1.3l0.9,1.4l0.3,0.3l0.4,0.3l0.7,0.3l1,0.2l0.4-0.1l0.3-0.2l0.2-0.5
						l-0.1-0.3l-0.3-0.5l-0.6-0.5l-1.3-0.5l-1.3-0.8l-0.7-0.6l-0.3-0.6l0.4-0.2l0,0l1.1-0.7l0.3-0.2l4.2,0l0,10.2l0.6-2.1l1.3-0.4
						l0.6,0.4l1.1-0.3l0.7,0.5l0.6-0.7l0.4,0.5l0-8.2l4.8,0l1.5,0.2l0.6,0.3l-0.2-1.3l0.5-0.3l0.3-1.2l-0.2-0.5l1.6,0l0,1.8l1.8,0
						l0,0.6l0,2.1l3.5,0l0,0.9l1.8,0l0,1.5l-1.7,0.7l-0.9,1.1l0.3,1.8l0.6,0.3l-0.7,0.6l0,0.7l-0.8,0.9l-0.1,1l-1,1.1l0.4,2.2
						l-2.9-0.8l-1.1,0.3l0.3,1l-0.3,1l0.5,0.6l-1,1.8l0,1.2l-0.6,1.2l-0.1,0.7l0,0.1l-0.5,1.2l-0.8,0l0.2,0.6l-1.4,0.2l-0.7,1.2
						l0.5,0.2l0.3,1.1l-0.9,0.6l-0.6-0.5l-0.8,0.9l-0.5-0.5l0.2-0.7l-0.9-0.2l-0.7,1l0.7,0.3l-0.1,0.6l-1.9,0.8l-1.3-1.1l-0.7,0.9
						l-0.1,1.3l0.5,0.1l-0.2,1l-1.3,0.1l-0.8-0.7l-0.3-0.9l-0.4,0.7l-1-0.1l-2.1-1.1l0-0.4l0,0l0.2,0l0.4-0.2l0.1-0.1l0.3-0.4
						l0.3-0.5l0.1-0.2l0-0.2l-0.1-0.7l-0.5-0.2l-0.4-0.1l-0.4-0.3l-0.5-0.4l-0.4-0.2l-0.4,0.1l-0.1,0.4l0.2,0.5l0.3,0.4l0.1,0.4
						l-0.1,0.3l-0.1,0.1l-0.1,1.2l-0.4-0.2l-0.4-0.3l-0.4-0.1l-0.2,0l-0.5,0l-0.5,0.2l-0.1,0.1l-0.4,0.3l-0.1,0l-0.9,0l-0.3-0.1
						l-0.4-0.2l-0.6-0.1l-0.4,0l-0.1-0.1l-0.3-0.6l-0.1-0.3l-0.1-0.4L132,178.1z"/>
					<path class="st20" d="M169.8,108.9l0-3.3l0.1-23.8l0-6.5l11.9,0.1l2.2,0l0.6,1.2l-0.7,1.5l-1,0.4l-1.2,0l-0.3-0.4l-3.2,0.9
						l-1,1.6l0.7,1.7l1.6,0.1l0.7-1.1l0.2-1l0.7-0.4l1,1l4.4,0l0,2.8l0.5,0l1.3,1l-0.3,3.4l-1.2,0.2l1.5,0l0,9.1l-1.9,0l0,2.7
						l-1.9,0l0,2.7l0,2.6l-7.7-2.6l0,0.6l1.4,0.2l0.8,1.4l-0.4,1.7l-1,0.2l-0.2-0.6l-1.2,1.1l-0.6-0.4l-1.1,2.1l-0.6-0.3l0.5,2.6
						l-2.5,0.3l-2.1-2L169.8,108.9z"/>
					<path class="st17" d="M204.7,83.7l2.8,0l11.9,0l0,6.4l0,7.3l4.7,0l1.9,0l-1.1,0.5l-1,1.5l-1.3-0.6l-0.4,0.4l0,9.2l-10,0l0-5.1
						l0-2.3l-2.8,0l-0.9,0l0-0.9l-3.6,0L204.7,83.7z"/>
					<path class="st36" d="M183.1,28.2l14.8,0l2.8,0l3.7,0l3.7,0l0,6.6l0,0.1l0,6.3l0.1,0.7l-0.1,9.2l0,1.8l-11-0.1l-1.4,0.3l-8.4,0
						l-0.9,0l0-4.2l0-2.5l-3.1-2.2l0-2.5l-0.3-10.8L183.1,28.2z"/>
					<path class="st37" d="M154.9,206.9l7.5,0l9.4-0.1l0,0.7l0.2,0.3l1.4,0l0.1-0.9l3.6,0l2.8-0.2l0.7-0.8l0,0.1l0,9l0,1.3l0,3.7
						l0,8.5h-0.9l-11,0l-4.1,0l-4.5,0l0-5.9l0-10.2l-5.5,0L154.9,206.9z"/>
					<path class="st31" d="M122.1,201.8l0.2-1.2l0.7-2.7l0.1-0.2l0.2-0.3l0.2-0.1l0.4-0.1l1.7-0.3l0.1,0l0.2,0.8l0,0.8l0,0.3
						l0.1,0.3l0.2,0.4l0.1,0.2l0.1,0.1l0.2,0.1l0.4,0.1l0.4,0l0.3-0.2l0.3-0.3l0.1-0.3l0.1-0.6l0-0.1l-0.8-0.8l-0.3-0.3l-0.1-0.1
						l0-0.1l0-0.2l0.1-0.2l0.1-0.1l0.1-0.1l0.9-0.3l12.3,0.5l4.8,1.2l4.1,1l0.1,1.4l-0.6,1.2l6.1,0l0,5.4l0,5.4l-0.7,0l-2.8,0
						l-12.9,0l-4.1,0l-1.4,0l0-1.3l-4.1,0.1l-0.4-0.5L127,210l0.1-1l-1.7-0.5l0.4-1.2l-0.8-1.2l-0.5-2.1l1.3,0l0.8,0l0.6-0.6
						l0.2-0.4l-0.2-0.4l-0.6-0.3l-0.6-0.1l-0.8,0.3l-0.8,0l-0.3,0l-1.4,0.1l-0.8-0.3L122.1,201.8z"/>
					<path class="st38" d="M177.3,7.7l0.4-0.3l1.2-0.6l1.5-1.1l0.1-0.2l0.1-0.3l0.1-0.4l0-1.1l-0.1-0.4l-0.1-0.2l-0.1-0.2l-0.2-0.2
						l-0.3-0.2l-1-0.5l-0.2-0.2l-0.3-0.3l-0.3-0.1L178,1.3l-0.3-0.4l-0.1-0.2L177.3,0l11.2,0l1.9,0l1.9,0l1.8,0l4.6,0l0.4,0l0.5,0
						l0,0l1.8,0l1.9,0l0.9,0l1.9,0l0.9,0l0.9,0l0,4.3l0,6.9l0,3l-0.4,0l-1.2,0l-8.3,0l-0.2,0.9l-2.1,1.3l0.1,0.7l-1.5,0.1l-2.4,1.1
						l-1.3-0.2l-0.4-1l-2.4-0.3l-0.5-1.2l-0.6-0.5l-2.2,0.1l-1.1,2.2l-0.4,0l-0.1-3.1l0-5.6l-5.4,0l-0.5-0.7L177.3,7.7z"/>
					<path class="st39" d="M132.9,223.7l0-0.7l0.1-10.7l1.4,0l4.1,0l12.9,0l2.8,0l0.7,0l5.5,0l0,10.2l0,5.9l-7.2,0l-11.1,0.1
						l-0.3,0.8l-1.7-0.5l-0.2,0.5l-3.7,1l-1.2,0l-2.1-1.6L132.9,223.7z"/>
					<path class="st2" d="M155.4,174.3l0.1-0.7l0.6-1.2l0-1.2l1-1.8l-0.5-0.6l0.3-1l-0.3-1l1.1-0.3l2.9,0.8l-0.4-2.2l1-1.1l0.1-1
						l0.8-0.9l0-0.7l0.7-0.6l-0.6-0.3l-0.3-1.8l0.9-1.1l1.7-0.7l1.7,0.3l-0.1-1l1.3-0.3l0.9-1.2l0.9-0.2l0.8-1.6l0,5.3l2.9,0l2.1,0
						l3.9,0l1.7,0l0.2,0l0,5.4l3.5,0l0.9,0l1,0l0.3,0l0.6,0l2,0l1.1,0l-0.8,0.3l-0.6,0.3l-0.8,2.6l-1.7,1.7l-0.6,0l-0.5,0.9l0.3,0.6
						l0.3,0.4l-0.9,0.2l-0.5-0.2l-0.1,0.9l-0.3,0.1l-0.1,0.8l-1,0.5l-0.2,1l1.2,1l0.2,1.1l-0.7,0.9l-2,0.9l-0.5-0.3l-0.3,1.5l0.4,2
						l-0.3,1.4l1.1,1.2l-0.5,0.9l0.3,0.9l-3.7,0l-1.7,0l-0.2,0l-2.3,0l-14.3,0l-0.3,0.1l-3,0L155.4,174.3L155.4,174.3z"/>
					<path class="st40" d="M251.9,255.2l2.6,0l0-5.4l14.2,0l7.2,0l0.2,4.5l0.1,3l0,0.5l0.3,8l-7.1,0l-5.9,0l-9.1,0l-0.3-0.1l-2.4,0
						L251.9,255.2z"/>
					<path class="st15" d="M199,130.4l0.6-2.5l0.6-1.7l1.9-2.4l0.2-1.4l0.5-0.1l-0.2-1.6l0.4-0.7l-0.3-0.6l1-0.2l0.7-1.1l0-1.8
						l0.6-0.2l0.5-0.9l-0.1-1.1l0.9-0.1l0.6-1l0-0.2l1.5-2.9l1-1.6l2.9,0l10,0l2.8,0l4.4,0l-0.1,11.1l0,2.7l0,8.4l-12.6,0.1l-2.2,0
						l-1.2,0l-5.6,0l0,2.8l-5.8,0l-6.6,0.4L199,130.4z"/>
					<path class="st26" d="M129.9,130.5l0.1-0.4l0.1-0.2l0.2-0.3l0.4-0.5l-0.1-0.2l0-0.1l0-0.2l0.1-0.1l0.1-0.1l0.5-0.7l0.3-0.2
						l0.5-0.5l0.2-0.4l0.1-0.6l0-0.1l0-0.5l10.5,0l2.7,0.2l0,4l-0.8,2.3l-0.6,1.4l0,1.5l-0.8,0.6l-0.4,0.9l-0.1,10.9l12.7,0l0.5,1.2
						l1.1,0.4l-0.3,0.7l-1.2,0.4l0.2,0.5l-0.3,1.2l-0.5,0.3l0.2,1.3l-0.6-0.3l-1.5-0.2l-4.8,0l0,8.2l-0.4-0.5l-0.6,0.7l-0.7-0.5
						l-1.1,0.3l-0.6-0.4l-1.3,0.4l-0.6,2.1l0-10.2l-4.2,0l0.4-0.2l0.3-0.2l0.4-0.5l0.4-0.3l0.1-0.1l0.2-0.2l0.3-0.5l0.1-0.3l0-0.5
						l0-0.1l-0.2-0.4l-0.4-0.6l-0.3-0.2l-0.3-0.2l-0.2,0.2l-0.4,0.5l-0.1,0.2l-0.1,0.5l-0.1,0.3l-0.3,0.4l0,0.4l-0.6,0.1l-1,0.3
						l-0.4,0.2l-0.9,0.4l-0.4,0l-0.3,0.3l-0.1,0l-0.3,0l-0.1-0.1l-0.4-0.3l-0.3-0.3l-0.2-0.2l-0.1-0.2l-0.3-0.7l-0.1-0.6l0-0.3
						l0-0.2l0.1-0.3l0,0l0.1-0.2l0.3-0.2l0.1-0.1l0.2,0l0.1-0.1l0.4-0.5l0.2-0.4l0.5-0.5l0.7-0.5l0.3-0.2l0.9-0.4l0.3-0.2l0.6-0.6
						l0.4-0.6l0.1-0.4l0-0.2l-0.1-0.2l-0.2-0.1l-0.9-0.3l-0.7-0.2l-1.2-0.2l-0.5-0.2l-0.4,0l-1,0.1l-0.2,0l-0.2-0.1l-0.3-0.2
						l-0.1-0.3l0-0.4l0-0.3l0.4-0.9l0-0.3l-0.1,0l-0.3-0.3l0.2-0.9l0-0.8l0.2-0.6l0.1-0.1l0.3-0.2l0.1-0.3l0.2-0.7l0.1-0.1l0.3-0.3
						l0.5-0.4l0.2,0l0.5,0l0.5-0.2l1-0.9l0.8-1l0.1-0.2l0.2-0.6l0-0.2l0,0l0-0.2l-0.1-0.6l0.1-0.4l0-0.2l-0.3-0.6l-0.1-0.1l-0.4-0.3
						l-0.1-0.1l-0.1-0.2l0.1-0.1l0.1,0l0.1-0.1l-0.1-0.7l-0.3-0.8l-0.2-0.3l-0.2-0.2l-0.1-0.1l-0.5-0.2l-0.3,0l-0.7,0.2l-0.5,0.3
						l-0.1,0.1l-0.2,0.5l0.1,0.1l0.2,0.2l0.1,0.2l0,0.1l0,0.1l-0.1,0.1l-0.2,0.1l0,0.1l0,0.2l0.1,0.4l0.2,1l0,0.2l0,0.2l-0.1,0.3
						l-0.6,0.8l-0.3,0.2l-0.4,0.1l-0.5,0l-0.3,0l-0.3-0.1l-0.8-0.3l-0.2-0.1l-0.4-0.4l-0.2-0.3L130,131l-0.1-0.3L129.9,130.5z"/>
					<path d="M211.6,223.1l3.5,0l7.1,0l0,4.5l0,0.9l2.7,0l2.4,0l0.3,0l0,1.3l0,4l-0.1,5.7l0,5.1l0,4.4l-4,0l0,1.7l-2.7,0l0-1.1
						l-1.3,0l0-0.9l-1.6,0l-1,0l0,0.9l-3,0l-2.3,0l0-7.7l0-5.2l0-1.1l0-3.3L211.6,223.1z"/>
					<path class="st9" d="M250.4,152.5l10.8,0l16.7,0l-0.6,5.8l0,0l-0.2,2.2v0l-0.3,3.1l-0.1,1.2l-0.1,0.4l-0.4,4l-0.4,3.6l-0.2,1.4
						l-10.1,0.1l-15.2,0.1l-0.1-16.3L250.4,152.5z"/>
					<path class="st18" d="M128.8,98.6l0.1-0.1l0-0.1l0-0.6l0-0.2l0.4-0.4l0.2,0l0.2-0.1l0.4-0.2l0.1-0.1l0.1-0.2l0.3-0.6l0.2-0.3
						l0.3-0.3l0.2-0.2l0.1-0.1l0-0.2l-0.1-0.3l-0.1-0.2l-1.5-1.2l12.8-0.1l5.5,0.1l2.2,0l3.1,0l0.1,0.2l-0.2,5.1l0,4.6l0,6.4l2.5,0
						l-0.6,0.2l-0.3,2.2l1.5,1.3l1.2,0.7l-0.3,0.8l-0.1,2.6l-0.5,0.7l-0.1,1l1.1,0.5l0,0.8l-1.2,0.4l-8.4,0.1l0-0.2l-2.7,0l0,5.6
						l-2.7-0.2l-10.5,0l0.2-0.5l0.3-0.2l0.3-0.2l0.4-0.1l0.3-0.1l0.4-0.3l0.2-0.3l0.1-0.5l0.2-0.5l0-0.1l0-0.2l-0.2-0.3l-1.3-1.1
						l-0.6-0.2l-0.3,0l-0.3-0.1l-0.1-0.1l-0.1-0.1l-0.3-0.4l-0.8-0.4l-0.2-0.1l-0.1-0.1l0-0.1l0-0.7l0-0.2l0.3-0.6l0.1-0.1l0.2-0.2
						l0.3-0.1l0.7-0.1l0.4,0.1l0.1,0l0.4,0.4l0.1,0.2l0.1,0.1l0.4,0.1l0.6,0l0.9,0l0.5-0.1l0.6-0.3l0.2-0.2l0.1-0.3l0-0.2l0.1-0.4
						l0-0.4l0-1.2l-0.1-1.1l-0.2-0.7l-0.1-0.7l0.3-0.1l0.2,0l0.2-0.1l0,0V112l0.1-0.1l0.2,0l0.2,0l0-0.2l0.1-0.2l0.2,0l0.1-0.3
						l0.5-0.5l0.2-0.3l0.1-0.6l0.1-0.3l0.1-0.3l0-0.3l-0.1-0.3l-0.2-0.2l-0.2-0.2l-0.3-0.1l-0.4,0l-0.3,0.1l-0.3,0.2l-0.1,0.1
						l-0.1,0.2l-0.1,0.3l-0.2,1l-0.1,0.2l-0.2,0.3l-0.1,0.6l-0.1,0.2l-0.1,0l-0.3-0.2l-0.2-0.3l-0.2-0.4l-0.2-0.5l-0.1-0.1l-0.5-0.4
						l0.1-0.4l0-0.3l-0.8-1l-0.1-0.2l0-0.9l-0.1-0.9l0-0.1l0.1-0.2l0-0.2l-0.1-0.8l0-0.1l0.1-0.1l0.8-0.5l0.2-0.2l0.7-1.1l0.3-0.4
						l0.6-0.5l0.8-0.6l0.7-1l0.2-0.5l0-1l0-0.1L138,98l-0.3-0.2l-0.2-0.1l-0.4,0l-0.2,0l-0.2,0.1l-0.2,0.2l-0.3,0.3l-0.1,0.2
						l-0.1,0.3l0,0.2l0,0.1l0.1,0.4l0,0.5l-0.2,0.6l-0.4,0.6l-0.3,0.4l-0.5,0.4l-0.9,0.4l-0.7,0.1l-0.6,0l-0.3-0.1l-0.3-0.1
						l-0.7-0.4l-0.7-0.6l-0.2-0.2l0-0.1l0-0.2l0-0.2l0.2-0.3l0.1-0.2l0.2-0.1l0.4,0l0.4-0.1l0.3,0.2l0.2,0l0.7-0.3l0.8-0.3l0.1,0
						l0.3,0l0.4-0.2l0.1-0.1l0-0.1l0.1-0.2l0.4-0.5l0.1-0.3l0-0.3l-0.1-0.4l-0.3-0.8L134,96l-1.1-0.7l-0.1-0.1l-0.2-0.2l-0.2-0.1
						l-0.3,0.1l-0.2,0.4l-0.1,0.3l0,0.5l0.1,0.4l0.2,0.6l0.1,0.6l-0.4,0.6l-0.2,0.2l-0.3,0.1l-0.4,0.1l-0.6,0.2l-0.2,0l-0.4-0.1
						l-0.9-0.3L128.8,98.6z"/>
					<path class="st41" d="M206.3,210.4l0-5.3l0-2.9l5.3-0.4l13.2-1l0.1,22.3l-0.2,0l-2.5,0l-7.1,0l0-4.9l-0.5-0.1l-0.1-1.2
						l-2.1-1.5l-1.7-0.3l-2.3-1.5l-0.7-1.1l-1.3-0.2L206.3,210.4z"/>
					<path d="M228,268.3l0-9.9l0-3.2l7.4,0l1.4,0l1.7,0l13.3-0.1l0,10.7l0,3.6l-5.3,0l-7.8,0l-5.5,0l-0.4,1.8l-0.3,0l-1.1,0l-3.6,0
						L228,268.3z"/>
					<path class="st42" d="M194.9,203l6.4-0.4l5.1-0.4l0,2.9l0,5.3l0,2l1.3,0.2l0.7,1.1l2.3,1.5l1.7,0.3l2.1,1.5l0.1,1.2l0.5,0.1
						l0,4.9l-3.5,0l-0.9,0l-8,0l0,2.7l-7.1,0l0-3.1l0-2.5l0-2.5l-0.9,0L194.9,203z"/>
					<path class="st3" d="M263.1,94.4l2,0l1.6-0.1l1.2-0.9l0.2,0.1l1.6-0.4l0.9-1.2l0.2-0.3l2.3,1.8l0.4-0.3l-1.1-1l-0.1-2.3l1-1.5
						l-1.5-0.6l0.3-1.9l-0.7-0.4l0.5-0.5l1.4-0.5l1.1,0.2L275,84l2-0.1l0.6-1.4l1.2,0.6l2.1-2.1l0.3-1.7l4,0l-0.2,1.6l-0.1,1.3
						l0,0.2l-0.1,0.8l0,0.1l-0.3,2.9l-0.3,2.6l0,0.1l-0.1,0.4l0,0.5l0,0.3l0,0.1l-0.2,2.3l-0.1,1.1l0,0.3l-0.7,7.1l-0.6,6.1
						l-0.1,0.9l-19.1,0.1l-0.1-7.3l0-3.7L263.1,94.4z"/>
					<path class="st28" d="M181,23.6l1.2-1.3l-0.5-1.7l0.2-1.1l-0.6-0.5l0.5-1.1l1.2-0.6l0.4,0l1.1-2.2l2.2-0.1l0.6,0.5l0.5,1.2
						l2.4,0.3l0.4,1l1.3,0.2l2.4-1.1l1.5-0.1l-0.1-0.7l2.1-1.3l0.2-0.9l8.3,0l1.2,0l0.4,0l0,1.9l0,1.9l0,1.8l2.8,0l0,8.4l-2.8,0
						l-3.7,0l-3.7,0l-2.8,0l-14.8,0l-1-0.3l-0.8-2.6l-0.5,0.1L181,23.6z"/>
					<path class="st15" d="M106.8,234.3l0.1-0.2l0.1-0.2l0.1-0.2l0.4-0.3l0.2,0l0.9,0l0.8,0.1l1,0.2l0.7,0.1l0.5,0l0.5-0.1l0.8-0.3
						l1-0.5l0.2-0.2l0.2-0.4l0.2-0.5l0-0.3l0-1l0-0.1l-0.1-0.1l-0.4-0.4l-0.7-0.5l-0.1-0.1L113,229l-0.5-0.3l-0.2-0.2l0-0.4
						l-0.1-0.4l0-0.2l0.1-0.8l0.2-0.3l0-0.1l-0.3-0.2l-0.2,0l-0.3,0.1l-0.1,0.1l-0.3,0.3l-0.1-0.4l-0.1-0.4l-0.2-0.5l0-0.3l0.1-0.4
						l0.3-0.6l0.3-0.2l0.5-0.3l0.1-0.1l0.2-0.1l0.2,0l0.2,0.1l0.1,0.1l0.2,0.4l0,0.1l-0.1,0.3l0,0.2l0.4,1.5l0.3,0.6l0.3,0.3
						l0.3,0.3l0.4,0.2l0.2,0.1l1.3,0l0.3-0.4l0.1-0.3l0-0.3l0-0.6l0-0.3l-0.3-0.1L116,225l-0.5-0.5l-0.5-0.5l-0.3-0.7l-0.2-0.5
						l-0.2-0.3l-0.1-0.3l-0.1-0.7l-0.1-1.4l0.1-0.9l0.1-0.3l0-0.4l-0.1-0.1l-0.2-0.1l-0.1-0.3l0-0.1l0-0.1l0.1-0.1l0.3-0.4l0.1-0.1
						l0.1,0l0.2,0l0.3,0l0.6-0.1l0.3,0.1l0.1,0.1l0.1,0l1.6-0.6l0.3-0.2l0.3-0.2l0.6-0.5l0.6-0.5l0.4-0.4l0,0l0.1-0.1l0.1-0.3
						l0.1-0.8l-0.5-0.3l-0.2-0.1l-0.3,0l-0.4,0l-0.3,0.1l-1.1,0.5l-0.5,0.1l-0.7,0l-0.3,0l-0.2-0.1l-0.3-0.2l-0.5-0.3l-0.5-0.7
						l-0.1-0.2l-0.1-0.1l0-0.1l0-0.3l0.1-0.5l0.1-0.2l0.2-0.3l0.3-0.3l0.4-0.3l0.1,0l0.2,0l0.1,0l0.1,0.2l0.1,0.2l0.3,0.3l0.1,0.2
						l0.3,0.2l0.6,0.3l1.4,0.5l0.4,0.1l0.4,0l0.2-0.1l0.8-0.4l0.1-0.4l0.1-0.8l0-0.3l-0.1-1.1l-0.1-1.6l0-0.6l0.1-0.7l0-0.1l0.8-1.3
						l0,0l1.3-0.5l1.1-0.2l0.8-0.1l0.1,0l0.5,2.1l0.8,1.2l-0.4,1.2l1.7,0.5l-0.1,1l1.5,0.6l0.4,0.5l4.1-0.1l0,1.3L133,223l0,0.7
						l-0.1,4.8l-1.5-0.2l-1.4-0.5l-0.9-1l-1.4,0.8l-0.8-0.5l-0.5,0.6l-1.2-0.2l-1.3,0.6l-0.6,0.7l-0.7-0.2l-0.6,0.5l-0.9,0l-0.4,0.7
						l-1.1,0.1l-0.6,0.5l-2.3-0.3l-0.1,2.1l-1.2,0.1l-0.1,0.5l1.1,1l-0.1,1.3l-0.4,0.7l-1.1,0.1l-1.2,0.7l0-1l-0.6-0.5l-1,0.2
						L111,236l-0.7,2l0-0.2l-0.3-0.5l-0.3-0.4l-1.2-1.1l-1-0.5l-0.4-0.5l-0.2-0.5L106.8,234.3z"/>
					<path class="st43" d="M179.9,233.1l0-4.8h0.9l7.1,0l1.4,1.4l1.5,0l0.7-0.4l0,3.9l0,2.3l0.4,0.4l0,3.1l1.3,0l0,2.7l3.6,0l0,1.3
						l0.5,0l0,1.3l0.4,0l0,0.9l4.5,0l0,4.5l-1.1,0l-1.9,0l-0.3,0l-1.3,0l-0.2,0l-2.4,0l-0.1,0l-1.6,0l-0.9,0l-0.4,0l-1.1,0l-4.1,0
						l-0.2,0l-1.7,0l0,0l-1.6,0l-3.4,0l0-9l0-1.8l0-5.3V233.1z"/>
					<path class="st27" d="M260.6,75.2l0-15.3l0-1.3l0-0.9l2.4,0l1,0l5.8,0l1.7,0l16.1,0.2l-0.2,1.8l-0.2,1.8l-0.1,1.2l-0.7,6.2
						l0,0.1v0l-0.1,1.2L286,73l-0.2,2.3l-0.2,1l-0.1,0.9l-0.3,2.3l-4,0l-0.3,1.7l-2.1,2.1l-1.2-0.6l-0.6,1.4l-2,0.1l-0.6,0.5
						l-1.1-0.2l-1.4,0.5l-0.5,0.5l0-0.7l1.2-0.8l-0.3-0.4l-11.7,0L260.6,75.2z"/>
					<path class="st44" d="M208,0.1l4.2,0l0,0l4.1,0l2.8,0l0.9,0l0.4,0l2.7,0l1.5,0l2.8,0l0,3l0,1.9l0,4.7l2.8,0l0,1.5l0,6.3l0,8.8
						l2.8,0l0,5.6l-1-0.6l-1.1-0.1l-2.2-1.2l-0.6,0.2l-1.5-0.3l-0.7,0.6l-1.3-0.7l-1.6,0.4l-2.7-2.2l-1.3,0l-8.2,0l0-8.4l-2.8,0
						l0-1.8l0-1.9l0-1.9l0-3l0-6.9L208,0.1z"/>
					<path d="M209.8,282.7l2.2,0l0-2.7l2.5,0l0.2-0.9l2.7,0l0-4.2l0-3.8l10.6,0l0,5.9l0,5.5l0,5.3l-0.4,0.1l-0.2,0.1l-0.6,0.7
						l-0.1,0.3l0.6,0.3l0.4,0.2l0.4,0l0.3,0.3l0.5,1.1l0,0.3l-0.4,0.7l-0.8,0.6l-0.7,0.3l-0.4,0.2l-0.7,0.9l-0.2,0.2l-1.9,0.8
						l-0.3,0.5l0,0.4l-0.3,1l-0.9,1.1l0,1.2l-0.7,0.6l-0.1,0l-0.3-0.1l-0.3-0.9l-0.2-0.1l-0.5,0.4l-0.7,0.3l-1,0l-0.1,0.1l-0.2-0.5
						l-0.1-0.2l-0.2-0.2l-0.3-0.1l-0.1,0l-0.3,0.1l-0.1,0.1l-0.1,0.1l-0.2,0.2l-0.4,0.2l-0.4,0.1l-0.2-0.1l-0.3-0.3l-0.3-0.4
						l-0.1-0.2l-0.1-0.3l-0.4-0.7l-0.2-0.3l-0.3-0.1l-0.2-0.1l-0.1-0.1l-0.2-0.2l-0.1-0.1l0-0.1l0.1-0.5l0.1-0.4l0-0.2l-0.1-0.2
						l-0.4-0.2l-0.2-0.1l-0.3-0.3l0-0.2l0.1-0.1l0,0l0-0.3l0-0.6l0-0.2l-0.3-0.3l-0.3-0.2l0.1-1l0.1-0.2l0,0l0.3-0.1l0.1-0.1
						l0.3-0.3l0-0.1l-0.2-0.3l0-0.7l0-0.4l-0.3-0.3l-0.5-0.3l0-0.2l-0.1-0.1l-0.3-0.2l-0.2-0.1l-0.2-0.4l-0.1-0.5l-0.4-0.7l-0.1-0.4
						l-0.3-0.7l-0.1-0.2l-0.1-0.2l0-0.4l0.1,0l0.1,0.1l0.1,0l0.1-0.2l-0.1-0.9l-0.1-0.3l-0.1-0.1l-0.1-0.3l0.1-0.4l0-0.4
						L209.8,282.7z"/>
					<path class="st45" d="M180.5,186.3l0.9-1.1l2,0l10.9,0l13.4,0.1l3.6,0l0.4,2.1l0,2.4l0,11.8l0.1,0.2l-5.3,0.4l-5.1,0.4
						l-6.4,0.4l-7.8,0.6l-0.3-0.8l1.1-0.7l-0.2-0.7l-1.6,0l-0.5-0.6l0.8-1.2l-1.2-1.5l1-0.3l0.3-0.5l-0.3-1.1l-0.4-1.1l-1.3-0.7
						l0-0.8l-0.5-1.5l-1,0l0.3-0.1l-0.1-0.6l0.3,0.2l-1.9-2.9l-0.4-0.7l0.6-0.7l-1,0L180.5,186.3z"/>
					<path class="st21" d="M259.8,28l0-2.5l0.9,0l0-10.2l0.9,0l17.6,0.1l0.9,0l0,0.9l0.9,0l0,10.2l0.1,7.4l-1.4,0l-3.5-0.1l-4.3,0
						l-1.8,0l0-2.8l-10.2,0L259.8,28z"/>
					<path class="st35" d="M244.1,83.3l0-3.5l0-0.9l5.4,0l0-3.7l11.1,0.1l0,8.3l11.7,0l0.3,0.4l-1.2,0.8l0,0.7l0.7,0.4l-0.3,1.9
						l1.5,0.6l-1,1.5l0.1,2.3l1.1,1l-0.4,0.3l-2.3-1.8l-0.2,0.3l-0.9,1.2l-1.6,0.4l-0.2-0.1l-1.2,0.9l-1.6,0.1l-2,0l0-3.7l-1.1,0
						l-0.8,0.4l-1.5-0.4l-1.8,0l-9.4,0.1l-3.6,0.1l0-1.9l0-2.7l-0.9,0.1L244.1,83.3z"/>
					<path class="st18" d="M143.3,55.1l0.3-0.5l0.9-0.6l1.5-1.1l0.3,0.1l0.5,0.2l0.6,0.6l0.3,0.2l0.5,0.4l0.2,0.1l0.6,0.2l0.3,0
						l0.6-0.1l0.3-0.1l0.2-0.1l0.2-0.1l0.4-0.4l0.3-0.4l0.2-0.4l0-0.4l-0.1-0.5l-0.1-0.2l-0.1-0.1l-0.2-0.1l-0.6-0.1l-0.5,0.1
						l-0.5-0.1l-0.4-0.1l-0.2,0l-0.3,0.2l-0.3,0.1l-0.2,0l-0.2-0.2l-0.3,0.1l-0.3,0.2l-0.2-0.2l-1-0.6l-0.2-0.2l-0.9-1.1l-0.1-0.3
						l-0.1-0.5l0-0.4l0-0.2l0.2-0.2l0.2-0.3l0.3-0.1l0.6,0l0.3,0.1l0.1,0.1l0.1,0.2l0.2,0.7l0.1,0.2l0.2,0.2l0.8,0.6l0.6,0.2l0.5,0
						l0.2,0.1l0.3,0.2l0.2-0.3l0.1-0.4l0.1-0.4l0-0.2l0-0.2l0-0.4l0.2-0.9l0.2-1.1l0.1-0.2l0.1-0.2l0.2-0.2l0.2-0.1l0.4-0.1l0.5-0.2
						l0.3,0l1.3,0.2l0.4,0l0.5-0.4l0.1-0.2l0.5-0.8l0.1-0.3l0-0.4l-0.1-0.4l-0.1-0.3l-0.2-0.4l-0.9-0.7l-0.1-0.2l0-0.1l0-0.4
						l0.1-0.4l0.1-0.1l0.2-0.2l0.3-0.2l0.3,0l0.4,0l0.7,0.2l0.2,0l0.7,0l0.6-0.1l0.5-0.2l0.4,0l0.1,0.2l0.1,0.2l-0.1,0.6l-0.5,0.9
						l-0.1,0.6l0,0.5l0.2,0.3l0.2,0.2l0.4,0.2l0.5,0l0.4-0.2l0.1-0.3l0.1-0.2l0-0.3l-0.2-0.5l0-0.1l-0.3-0.8l0-0.5l0.6-1l-0.2-0.2
						l0.9-0.5l0.3-0.2l0.2-0.1l0.7-0.1l0.2-0.1l1.7-1.3l0.3-0.3l0.2-0.3l0.1-0.3l0.1-0.3l0-0.3l-0.1-0.4l-0.3-0.7l-0.2-0.2l-0.4-0.3
						l-0.1-0.2l-0.2-0.6l-0.1-0.9l0.1-0.4l0.1-0.3l0.1-0.2l0.2-0.3l0.1-0.6l0.1-0.2l0.5-0.5l8.9,6.4l0.1,0.1l-0.1,5.6l0,4.7
						l-2.7-0.1l0,2.5l0,4.4l0,5.1l0,5.5l-10.8-0.1l-0.2,0l0-8.3l-7.3-0.1l-8.2,0l-0.1-0.3L143.3,55.1z"/>
					<path class="st46" d="M250.4,138.3l0-3.4l0-0.5l0-3.7l0.3,0l5,0.1l24.4-0.2l-0.3,3.4l-0.7,7.9l-0.3,2.2l-0.5,5.3l0,0l-0.3,3
						l-16.7,0l-10.8,0L250.4,138.3z"/>
					<path class="st47" d="M219.3,80.9l5.9,0l10.6,0l0-1l8.2-0.1l0,3.5l-0.1,3.1l0.9-0.1l0,2.7l0,1.9l-0.9,0l-2.8,0l0,1.8l-4.8,0
						l-2.5,0.8l-1.7,0.1l-0.6,0.5l-2.5,0.9l-1.1,1.7l-1.2-0.2l-1,0.8l-1.9,0l-4.7,0l0-7.3l0-6.4L219.3,80.9z"/>
					<path class="st48" d="M208.1,28.2l2.8,0l8.2,0l1.3,0l2.7,2.2l1.6-0.4l1.3,0.7l0.7-0.6l1.5,0.3l0.6-0.2l2.2,1.2l1.1,0.1l1,0.6
						l0,7.4l0,2.9l0,5.4l0,5.5l-13.8-0.1l0-1.8l-0.9,0l-10.2-0.1l0.1-9.2l-0.1-0.7l0-6.3l0-0.1L208.1,28.2z"/>
					<path class="st5" d="M250.4,174.4l15.2-0.1l10.1-0.1l-0.4,3.4l0,0l-0.2,2.2l-0.5,5.2l-0.1,0.8l0,0.1l-0.7,6.6l0,0.2l-0.2,2.2
						l-4.6,1.3l-3.3,0.9l-7.2,1.3l-2.4,0.2l-5.3,0.4l-0.1-6.6l0-1.8l-0.1-5.3l0-3.7L250.4,174.4z"/>
					<path class="st46" d="M222.1,99l0.4-0.4l1.3,0.6l1-1.5l1.1-0.5l1-0.8l1.2,0.2l1.1-1.7l2.5-0.9l0.6-0.5l1.7-0.1l2.5-0.8l4.8,0
						l0,0l0,5.4l0,10l-1.1,0l0,5.5l-1,0l-4.4,0l0,2.8l0,2.7l-5.4,0l0.1-11.1l-4.4,0l-2.8,0L222.1,99z"/>
					<path class="st26" d="M155.4,109.4l0.6-0.2l8.4,0l0-3.7l5.4,0l0,3.3l0,0.6l2.1,2l2.5-0.3l-0.5-2.6l0.6,0.3l1.1-2.1l0.6,0.4
						l0.1,7.3l0,3.2l-0.9,0.2l-0.4,1.2l0.4,0.7l-0.6,0.4l-0.5-2l-0.9,0.8l1.1,1.1l-0.4,0.7l-0.6-0.2l-0.4-0.9l-1.2-0.1l-0.1-0.7
						l-0.7,1.2l0.1,2.2l0.8,0.8l1.3-0.1l0.6,0.5l-0.2,1l1,1l-4.5,0.1l0,5.4l-10.8,0l-0.1-10.9l-2.3,0l1.2-0.4l0-0.8l-1.1-0.5l0.1-1
						l0.5-0.7l0.1-2.6l0.3-0.8l-1.2-0.7l-1.5-1.3L155.4,109.4z"/>
					<path class="st5" d="M153.7,136.4l5.4-5.4l10.8,0l0-5.4l4.5-0.1l0.5-0.1l0.5-0.7l0.4,0.8l8.6,3.6l0.2,0.1l10.7,4.5l-1.7,3
						l-1,0.3l0,1.5l-0.8,2.7l-0.5,1l-1.8,0.9l-0.9,1.4l-0.3,0.5l-0.8-0.3l-3,1.5l-1.3,1l-1.4,0.2l-0.1-0.4l-1,0.6l-1.7-0.1l-0.6,1.2
						l-0.8-0.2l-0.9,1.8l-0.8,0.6l-0.5-0.5l-0.9,0.6l-2.2,1.8l-1.2-0.7l-1.2,0.7l-0.8,1.6l-0.9,0.2l-0.9,1.2l-1.3,0.3l0.1,1
						l-1.7-0.3l0-1.5l-1.8,0l0-0.9l-3.5,0l0-2.1l0-0.6l-1.8,0l0-1.8l-1.6,0l1.2-0.4l0.3-0.7l-1.1-0.4l-0.5-1.2l0.8-1.8l0.7,0.3
						l0.6,1.3l0.7-0.4l0.3-1.2l-1.5-1.1l-1.1,0l-1.5-1.4l0.3-1.7l1,0.5l1.3-0.4l0.2-0.7l-0.9-0.7l-0.4-0.8l0.3-1.1l0.8-0.5l-1.5-0.2
						l-0.9,0.6l-1-0.3L153.7,136.4z"/>
					<path class="st49" d="M180.7,205.7l3.2-0.9l1.6-1l0.3,0l0.9-0.6l0.5,0.2l7.8-0.6l-0.1,14.7l0.9,0l0,2.5l0,2.5l0,3.1l-0.9-0.3
						l-3.4,0l0,3.6l-0.7,0.4l-1.5,0l-1.4-1.4l-7.1,0l0-8.5l0-3.7l0-1.3L180.7,205.7L180.7,205.7z"/>
					<path class="st50" d="M238.3,228.6l0-5.5l7,0l3.7,0l5.3,0l0,10.2l0,16.5l0.3,0l0,5.4l-2.6,0l-13.3,0.1l0-5.5l-0.4,0
						L238.3,228.6z"/>
				</g>
				<g>
					<g transform="translate(418,0)">
						<path pointer-events="none" class="st51" d="M0,0h148v216H0V0z"/>
						<g>
							<g>
								<g transform="translate(0,16)">
									<path pointer-events="none" class="st51" d="M0,0L0,0L0,0L0,0z"/>
									<g>
										<g pointer-events="none">
											
												<linearGradient id="SVGID_1_" gradientUnits="userSpaceOnUse" x1="-1052.0625" y1="663.1141" x2="-1052.0625" y2="664.1141" gradientTransform="matrix(16 0 0 -200 16833 132825)">
												<stop  offset="0" style="stop-color:#DCD4D0"/>
												<stop  offset="0.1" style="stop-color:#CEC5C1"/>
												<stop  offset="0.2" style="stop-color:#C0B8B4"/>
												<stop  offset="0.3" style="stop-color:#B3AAA7"/>
												<stop  offset="0.4" style="stop-color:#A59C99"/>
												<stop  offset="0.5" style="stop-color:#98908C"/>
												<stop  offset="0.6" style="stop-color:#8B827F"/>
												<stop  offset="0.7" style="stop-color:#7E7673"/>
												<stop  offset="0.8" style="stop-color:#726866"/>
												<stop  offset="0.9" style="stop-color:#665C5A"/>
												<stop  offset="1" style="stop-color:#59504E"/>
											</linearGradient>
											<path class="st52" d="M-8,2.2H8v200H-8V2.2z"/>
										</g>
										<g pointer-events="none">
											<text transform="matrix(1 0 0 1 12.6635 202.1725)" class="st53 st54">0</text>
											<text transform="matrix(1 0 0 1 12.6635 163)" class="st53 st54">100</text>
											<text transform="matrix(1 0 0 1 12.9135 125.4896)" class="st53 st54">200</text>
											<text transform="matrix(1 0 0 1 12.6635 83.1904)" class="st53 st54">300</text>
											<text transform="matrix(1 0 0 1 12.6635 45.4263)" class="st53 st54">400</text>
											<text transform="matrix(1 0 0 1 12.3436 10.3558)" class="st53 st54">500</text>
										</g>
									</g>
									<path pointer-events="none" class="st55" d="M0,0"/>
								</g>
							</g>
							<g pointer-events="none">
								<text transform="matrix(1 0 0 1 -13.0647 9)" class="st56 st57">Housing Units (HUs) At Risk</text>
							</g>
						</g>
						<path pointer-events="none" class="st55" d="M0,0"/>
					</g>
				</g>
				<g>
					<g transform="translate(200,-17.000000000000455)">
						<path pointer-events="none" class="st51" d="M0,0L0,0L0,0L0,0z"/>
						<g>
							<g pointer-events="none">
								<text transform="matrix(1 0 0 1 -191.6582 12.0156)" class="st56 st58">Expected wildfire risk to housing units in Mississippi</text>
							</g>
						</g>
						<path pointer-events="none" class="st55" d="M0,0"/>
					</g>
				</g>
			</g>
			<path class="st55" d="M0,0"/>
		</g>
	</g>
</g>
</svg>
